<svg width="556" height="489" viewBox="0 0 556 489" fill="none" xmlns="http://www.w3.org/2000/svg">
<rect x="348" y="61.071" width="10" height="10" rx="2" transform="rotate(-45 348 61.071)" fill="#FF8345"/>
<rect x="541" y="481.071" width="10" height="10" rx="2" transform="rotate(-45 541 481.071)" fill="#FF8345"/>
<rect x="362" y="201.071" width="10" height="10" rx="2" transform="rotate(-45 362 201.071)" fill="#48B774"/>
<rect x="50" y="7.07104" width="10" height="10" rx="2" transform="rotate(-45 50 7.07104)" fill="#48B774"/>
<rect x="109" y="327.071" width="10" height="10" rx="2" transform="rotate(-45 109 327.071)" fill="#48B774"/>
<rect x="114.041" y="37" width="56.8869" height="56.8869" rx="10.6663" transform="rotate(25 114.041 37)" fill="#FF8345"/>
<path d="M128.736 88.2074C128.603 88.149 128.487 88.0546 128.403 87.9345L124.24 82.4545L118.161 82.8051C117.168 82.8651 116.312 82.108 116.253 81.1139C116.252 81.1017 116.251 81.0896 116.251 81.0763C116.237 80.6658 116.353 80.2634 116.582 79.9231L120.129 74.7849L118.043 68.9428C117.708 67.9758 118.202 66.9168 119.159 66.5508C119.533 66.4037 119.946 66.3882 120.33 66.5071L126.13 68.2102L130.88 64.3143C131.635 63.6728 132.768 63.7643 133.411 64.5204C133.69 64.8478 133.841 65.2647 133.838 65.6937L133.909 71.8586L138.956 75.2254C139.365 75.4958 139.646 75.9224 139.735 76.4045C139.894 77.3207 139.385 78.2211 138.519 78.5586L132.743 80.6777L131.889 83.9395C131.755 84.4262 131.257 84.7182 130.767 84.5932C130.287 84.4663 130.001 83.9747 130.129 83.494L130.973 80.2276C131.137 79.633 131.574 79.1518 132.151 78.9357L137.949 76.7932L132.907 73.4157C132.398 73.0696 132.101 72.4865 132.12 71.8715L132.039 65.7285L127.215 69.681C126.755 70.0918 126.118 70.238 125.526 70.0702L119.725 68.3672L121.785 74.166C121.992 74.7398 121.908 75.3768 121.562 75.8783L118.015 81.0164L124.088 80.6761C124.696 80.6298 125.283 80.9037 125.638 81.3988L129.794 86.8753C130.045 87.2157 130.035 87.6831 129.77 88.0132C129.512 88.3469 129.06 88.4589 128.675 88.2876L128.736 88.2074Z" fill="white"/>
<rect x="406" y="113" width="56.8869" height="56.8869" rx="10.6663" fill="#48B774"/>
<path fill-rule="evenodd" clip-rule="evenodd" d="M446.295 140.047C446.295 140.541 445.893 140.943 445.399 140.943H445.388V140.922C444.888 140.922 444.483 140.518 444.482 140.018V140.015V137.003C444.482 133.384 442.502 131.405 438.895 131.405H430.006C426.396 131.405 424.405 133.396 424.405 137.003V145.891C424.405 149.487 426.396 151.478 430.003 151.478H438.891C442.498 151.478 444.478 149.487 444.478 145.891C444.478 145.391 444.883 144.985 445.385 144.985C445.886 144.985 446.291 145.391 446.291 145.891C446.295 150.46 443.46 153.295 438.895 153.295H430.003C425.427 153.295 422.592 150.46 422.592 145.895V137.006C422.592 132.427 425.427 129.592 430.003 129.592H438.891C443.439 129.592 446.295 132.427 446.295 137.003V140.047ZM433.037 143L438.034 138.002C438.381 137.655 438.944 137.655 439.291 138.002C439.639 138.35 439.639 138.912 439.291 139.26L433.666 144.886C433.498 145.052 433.272 145.145 433.037 145.145C432.8 145.145 432.575 145.052 432.408 144.886L429.596 142.072C429.249 141.725 429.249 141.162 429.596 140.815C429.943 140.467 430.506 140.467 430.853 140.815L433.037 143Z" fill="white"/>
<rect y="448.225" width="56.8869" height="56.8869" rx="10.6663" transform="rotate(-45 0 448.225)" fill="#48B774"/>
<path fill-rule="evenodd" clip-rule="evenodd" d="M39.1893 436.826L37.5443 438.471C36.1699 437.409 34.1821 437.508 32.9226 438.767L30.7588 440.931C29.4993 442.19 29.3995 444.177 30.4622 445.552L28.8263 447.189C27.0623 448.953 27.0589 451.819 28.8179 453.578L31.7234 456.484C31.9346 456.695 32.2371 456.786 32.5304 456.726C35.3948 456.139 38.1954 454.856 40.6307 453.015C40.9953 452.745 41.0883 452.254 40.867 451.865C40.3743 450.999 40.5167 449.943 41.2215 449.238C41.9188 448.541 42.9906 448.403 43.8261 448.9C44.1789 449.11 44.6256 449.049 44.9088 448.766C44.9382 448.736 44.965 448.706 44.9901 448.673C46.8447 446.223 48.1335 443.409 48.7185 440.538C48.7771 440.245 48.6866 439.943 48.4754 439.732L45.57 436.826C43.811 435.067 40.9483 435.067 39.1893 436.826ZM46.8748 440.645C46.3536 442.878 45.3656 445.064 43.9887 447.029C42.6018 446.561 41.038 446.908 39.9645 447.981C38.8994 449.046 38.5466 450.613 38.9966 452.006C37.0432 453.375 34.8651 454.361 32.6368 454.883L30.075 452.321C29.009 451.255 29.0124 449.517 30.0842 448.445L32.3268 446.2C32.4944 446.032 32.5874 445.807 32.5874 445.57C32.5857 445.334 32.4927 445.108 32.3259 444.942L32.015 444.632C31.3412 443.959 31.3421 442.862 32.0159 442.188L34.1796 440.024C34.7436 439.46 35.6051 439.368 36.2663 439.749L34.0036 442.012C33.6567 442.359 33.6567 442.922 34.0036 443.269C34.3506 443.616 34.9137 443.616 35.2607 443.269L40.4464 438.083C41.5123 437.017 43.247 437.017 44.313 438.083L46.8748 440.645ZM43.6846 450.436L44.769 451.521C45.116 451.868 45.116 452.431 44.769 452.778C44.4221 453.125 43.859 453.125 43.512 452.778L42.4276 451.693C42.0807 451.346 42.0807 450.783 42.4276 450.436C42.7746 450.089 43.3377 450.089 43.6846 450.436ZM50.2314 442.787C49.902 443.116 49.8962 443.635 50.1928 443.982C50.1928 443.982 51.5295 445.576 51.9652 446.066C52.4463 446.609 52.7957 447.374 52.8544 448.014C52.939 448.918 52.6784 449.566 51.9242 450.324C51.4289 450.821 48.7539 453.497 46.7326 455.519C46.3848 455.866 46.3848 456.43 46.7318 456.777C47.0787 457.123 47.6419 457.123 47.9888 456.777C49.9397 454.826 52.7161 452.048 53.1837 451.578C54.2991 450.458 54.7575 449.272 54.6251 447.849C54.5304 446.828 54.0335 445.72 53.2952 444.887C52.9909 444.544 52.2172 443.641 51.7863 443.137L51.7862 443.137L51.7859 443.137C51.6093 442.931 51.4904 442.792 51.485 442.787C51.1389 442.44 50.5775 442.44 50.2314 442.787ZM42.3154 459.932C42.4805 459.769 42.8207 459.429 43.2674 458.982C43.6143 458.635 44.18 458.632 44.5269 458.979C44.8739 459.326 44.8705 459.893 44.5228 460.241C44.0702 460.693 43.74 461.023 43.5708 461.191C42.4495 462.307 41.2637 462.766 39.8399 462.632C38.82 462.538 37.7121 462.041 36.8791 461.302C36.5412 461.003 35.6585 460.247 35.1512 459.813C34.9327 459.626 34.7838 459.499 34.7782 459.493C34.4321 459.147 34.4321 458.585 34.7782 458.239C35.1076 457.91 35.6255 457.905 35.9741 458.202C35.9741 458.202 37.5688 459.538 38.0582 459.972C38.6013 460.453 39.3656 460.804 40.005 460.862C40.9117 460.947 41.5587 460.686 42.3154 459.932Z" fill="white"/>
</svg>
